<svg xmlns="http://www.w3.org/2000/svg" xmlns:xlink="http://www.w3.org/1999/xlink" id="Layer_1" x="0px" y="0px" width="28px" height="17.666px" viewBox="0 0 28 17.666" xml:space="preserve">
<path fill-rule="evenodd" clip-rule="evenodd" fill="#C09559" d="M15.208,10.143c2.291-2.517,4.417-4.851,6.541-7.187  c0.981-1.08,2.131-1.866,3.396-0.62c1.303,1.282,0.374,2.4-0.633,3.39c-2.552,2.51-5.152,4.974-7.634,7.55  c-1.424,1.479-2.605,1.356-4.019,0.024c-2.784-2.625-5.635-5.181-8.478-7.743c-1.158-1.044-1.53-2.362-0.52-3.483  c1.116-1.238,2.229-0.297,3.195,0.6C9.552,4.984,12.071,7.271,15.208,10.143z"></path>
</svg>