<svg xmlns="http://www.w3.org/2000/svg" xmlns:xlink="http://www.w3.org/1999/xlink" id="Layer_1" x="0px" y="0px" width="253px" height="358.234px" viewBox="0 0 253 358.234" xml:space="preserve">
<path fill="#C09559" d="M71.233,263.471h-7.25v-7.25h7.25V263.471z M64.984,262.471h5.25v-5.25h-5.25V262.471z"></path>
<path fill="#C09559" d="M71.223,219.84h-7.325v-7.252h7.325V219.84z M64.898,218.84h5.325v-5.252h-5.325V218.84z"></path>
<path fill="#C09559" d="M71.223,177.018h-7.325v-7.25h7.325V177.018z M64.898,176.018h5.325v-5.25h-5.325V176.018z"></path>
<path fill="#C09559" d="M71.223,133.617h-7.325v-7.25h7.325V133.617z M64.898,132.617h5.325v-5.25h-5.325V132.617z"></path>
<path fill="#C09559" d="M80.492,91.723h-7.25v-7.25h7.25V91.723z M74.243,90.723h5.25v-5.25h-5.25V90.723z"></path>
<path fill="#C09559" d="M115.097,66.839h-7.25v-7.25h7.25V66.839z M108.847,65.839h5.25v-5.25h-5.25V65.839z"></path>
<path fill="#C09559" d="M114.98,263.471h-7.25v-7.25h7.25V263.471z M108.731,262.471h5.25v-5.25h-5.25V262.471z"></path>
<path fill="none" stroke="#C09559" stroke-miterlimit="10" d="M139.775,282.066"></path>
<path fill="#C09559" d="M239.885,313.666h-90.041v-1h89.041V132.771c0.039-0.735,3.341-71.224-40.36-102.364  c-25.347-18.062-56.904-22.88-71.584-22.88c-0.026,0-0.052,0-0.079,0c-11.597,0-41.684,2.171-71.582,22.194  C10.703,59.573,14.883,131.666,14.93,132.391l0.001,179.93l89.135,0.346l-0.004,1l-90.131-0.35V132.423  c-0.047-0.698-4.267-73.359,40.792-103.534C84.847,8.715,115.171,6.526,126.861,6.526c0.027,0,0.053,0,0.08,0  c14.796,0,46.61,4.856,72.164,23.065c44.153,31.462,40.818,102.492,40.779,103.206L239.885,313.666z"></path>
<path fill="none" stroke="#C09559" stroke-miterlimit="10" d="M114.48,282.066"></path>
<path fill="#C09559" d="M220.91,295.066h-71.066v-1h70.066V136.751c0.011-0.671,0.642-66.633-36.497-92.816  c-24.581-17.33-53.303-17.446-56.499-17.402c-3.211-0.049-31.929,0.072-56.511,17.402c-37.145,26.188-36.507,92.145-36.497,92.808  v157.324h70.158v1H32.907V136.751c-0.011-0.66-0.652-67.144,36.92-93.633c24.838-17.511,53.853-17.635,57.087-17.585  c3.21-0.046,32.236,0.074,57.075,17.585c37.572,26.489,36.932,92.973,36.921,93.642V295.066z"></path>
<polygon fill="#C09559" points="170.967,208.729 138.955,208.729 138.955,198.506 139.955,198.506 139.955,207.729 169.967,207.729   169.936,126.833 170.936,126.833 "></polygon>
<polygon fill="#C09559" points="114.571,208.729 82.851,208.729 82.88,126.833 83.88,126.833 83.851,207.729 113.571,207.729   113.571,198.506 114.571,198.506 "></polygon>
<path fill="#C09559" d="M150.344,338.291h-2.584v-1h1.584v-52.945h61.543V138.169c0.006-0.625,0.233-62.229-33.23-86.677  c-20.23-14.782-43.962-15.674-50.743-15.598c-6.793-0.071-30.522,0.815-50.755,15.598c-33.468,24.452-33.236,86.053-33.23,86.672  v146.181h61.636v52.945h1.583v1h-2.583v-52.945H41.929V138.169c-0.006-0.62-0.239-62.733,33.64-87.485  c20.482-14.964,44.478-15.859,51.345-15.79c6.853-0.074,30.852,0.825,51.333,15.79c33.88,24.752,33.646,86.865,33.641,87.49v147.171  h-61.543V338.291z"></path>
<path fill="none" stroke="#C09559" stroke-miterlimit="10" d="M114.071,204.988"></path>
<path fill="none" stroke="#C09559" stroke-miterlimit="10" d="M139.455,204.988"></path>
<path fill="none" stroke="#C09559" stroke-miterlimit="10" d="M114.071,203.137"></path>
<path fill="none" stroke="#C09559" stroke-miterlimit="10" d="M139.455,203.137"></path>
<path fill="none" stroke="#C09559" stroke-miterlimit="10" d="M114.071,200.475"></path>
<path fill="none" stroke="#C09559" stroke-miterlimit="10" d="M139.455,200.475"></path>
<path fill="#C09559" d="M189.924,263.471h-7.25v-7.25h7.25V263.471z M183.674,262.471h5.25v-5.25h-5.25V262.471z"></path>
<path fill="#C09559" d="M189.918,219.84h-7.326v-7.252h7.326V219.84z M183.592,218.84h5.326v-5.252h-5.326V218.84z"></path>
<path fill="#C09559" d="M189.57,177.018h-7.324v-7.25h7.324V177.018z M183.246,176.018h5.324v-5.25h-5.324V176.018z"></path>
<path fill="#C09559" d="M189.57,133.617h-7.324v-7.25h7.324V133.617z M183.246,132.617h5.324v-5.25h-5.324V132.617z"></path>
<path fill="#C09559" d="M180.318,91.723h-7.248v-7.25h7.248V91.723z M174.07,90.723h5.248v-5.25h-5.248V90.723z"></path>
<path fill="#C09559" d="M146.408,66.839h-7.25v-7.25h7.25V66.839z M140.158,65.839h5.25v-5.25h-5.25V65.839z"></path>
<path fill="#C09559" d="M146.178,263.471h-7.25v-7.25h7.25V263.471z M139.928,262.471h5.25v-5.25h-5.25V262.471z"></path>
<path fill="#C09559" d="M139.955,198.506h-1v-9.756h12.334l-0.051-53.742v0c0-20.797-11.164-38.367-24.379-38.367  c-13.196,0-24.345,17.564-24.345,38.354c0,0.013,0,0.028,0,0.044l0.015,53.711h12.042v9.756h-1v-8.756h-12.042l-0.015-54.599  c0-0.002,0-0.003,0-0.005l0-0.004c-0.005-0.054-0.005-0.102-0.006-0.135c-0.001-0.034-0.001-0.083,0.002-0.138l0-0.006h0.001  c0.001-0.018,0.002-0.036,0.005-0.055c0.065-21.614,11.409-39.167,25.345-39.167c13.735,0,25.341,17.966,25.379,39.259  c0,0.001,0,0.002,0,0.003h0.003l-0.001,0.029c0.001,0.026,0.002,0.054,0.002,0.083c-0.001,0.028-0.002,0.055-0.004,0.081v0.028  l0.051,54.626h-12.334V198.506z"></path>
<g>
	<path fill="#C09559" d="M158.279,164.998h-19.402V157.4h12.152v-48.303H102.38V157.4h12.5v7.598H95.13v-63.497h63.149V164.998z    M139.877,163.998h17.402v-61.497H96.13v61.497h17.749V158.4h-12.5v-50.303h50.649V158.4h-12.152V163.998z"></path>
	<path fill="#C09559" d="M183.277,189.994h-44.4v-13.498h30.9V90.349H83.631v86.495h30.901v13.15h-44.4V76.85h113.145V189.994z    M139.877,188.994h42.4V77.85H71.132v111.145h42.4v-11.15H82.631V89.349h88.146v88.147h-30.9V188.994z"></path>
	<path fill="#C09559" d="M186.541,317.764h-47.639v-10.141h37.496v-83.254h-37.521v-16.625h62.15V58.753H52.383v148.991h62.496   v16.625H77.035v83.602h37.498v9.793H66.544v-93.395H52.383v9.373H26.038v-25.998h9.722v-5.076h-6.597v-7.248h6.597v-5.598h-9.375   v-19.576h9.548v-5.248h-6.77V157.4h6.597v-4.816h-9.375v-13.585h9.375v-11.326h-9.375v-13.326h9.375v-5.597h-6.597v-7.249h6.597   v-5.424h-9.375V76.85h9.375V71.6h-6.597v-7.596h6.597v-5.25h-9.375V32.755h25.651v9.027h5.481v-5.786h7.712v5.786h4.903v-9.027   h19.633v9.375h5.134v-6.133h7.249v6.133h5.25v-9.375h13.703v9.027h11.295v-9.027h13.73v9.027h5.135v-6.134h7.25v6.134h5.133v-9.027   h19.633v9.027h5.25v-5.786h7.713v5.786h4.787v-9.027h25.998v25.999h-9.723v5.25h6.684V71.6h-6.684v5.25h10.156v19.228h-10.156   v5.424h7.031v7.249h-7.031v5.597h10.156v13.326h-10.156v11.326h10.156v13.672h-10.156v4.729h7.031v7.598h-7.031v5.596h9.809v19.229   h-9.809v5.598h6.684v6.9h-6.684v5.424h10.068v25.998h-26.337l-0.123-9.373h-14.37V317.764z M139.902,316.764h45.639v-93.395h16.356   l0.123,9.373h24.351v-23.998h-10.068v-7.424h6.684v-4.9h-6.684v-7.598h9.809v-17.229h-9.809v-7.596h7.031V158.4h-7.031v-6.729   h10.156v-11.672h-10.156v-13.326h10.156v-11.326h-10.156v-7.597h7.031v-5.249h-7.031v-7.424h10.156V77.85h-10.156V70.6h6.684   v-5.596h-6.684v-7.25h9.723V33.755h-23.998v9.027h-6.787v-5.786h-5.713v5.786h-7.25v-9.027h-17.633v9.027h-7.133v-6.134h-5.25   v6.134h-7.135v-9.027h-11.73v9.027h-13.295v-9.027h-11.703v9.375h-7.25v-6.133h-5.249v6.133h-7.134v-9.375H71.132v9.027h-6.903   v-5.786h-5.712v5.786h-7.481v-9.027H27.385v23.999h9.375v7.25h-6.597V70.6h6.597v7.25h-9.375v17.228h9.375v7.424h-6.597v5.249   h6.597v7.597h-9.375v11.326h9.375v13.326h-9.375v11.585h9.375v6.816h-6.597v5.598h6.77v7.248h-9.548v17.576h9.375v7.598h-6.597   v5.248h6.597v7.076h-9.722v23.998h24.346v-9.373h16.161v93.395h45.988v-7.793H76.035v-85.602h37.845v-14.625H51.383V57.753h150.644   v150.991h-62.15v14.625h37.521v85.254h-37.496V316.764z"></path>
	<polygon fill="#C09559" points="98.561,330.494 54.276,330.494 54.276,245.895 13.77,245.895 13.769,20.256 126.763,20.256    126.763,21.256 14.769,21.256 14.77,244.895 55.276,244.895 55.276,329.494 97.561,329.494 97.561,321.584 63.767,321.584    63.767,226.645 64.767,226.645 64.767,320.584 98.561,320.584  "></polygon>
	<polygon fill="#C09559" points="198.902,330.494 154.387,330.494 154.387,320.584 188.527,320.584 188.527,226.645    189.527,226.645 189.527,321.584 155.387,321.584 155.387,329.494 197.902,329.494 197.902,245.242 238.871,245.242    238.871,21.256 126.184,21.256 126.184,20.256 239.871,20.256 239.871,246.242 198.902,246.242  "></polygon>
</g>
<g>
	<path fill="#C09559" d="M139.848,227.492h-26.113v-18.633H88.736v-31.131H76.122V64.234h101.341v113.147h-12.617v31.479h-24.998   V227.492z M114.735,226.492h24.113v-18.633h24.998v-31.479h12.617V65.234H77.122v111.495h12.615v31.131h24.999V226.492z"></path>
	<path fill="#C09559" d="M183.77,249.02h-44.748v-22.643h24.883v-6.133h18.518v-37.498h12.848v-12.5h5.785v-30.017h-5.67V95.02h5.67   V71.252h-5.787V46.37h-18.865v-6.365h-23.998v6.134h-51.053v-6.134H77.006v6.365H58.488v24.883h-6.481V95.02h6.365v45.21h-6.019   v30.017h6.134v12.5h12.846v37.498h18.517v6.133h24.883v22.643H69.987v-6.018H54.016v-37.268h-8.911v-17.359h-6.25v-68.126h6.481   V115h-6.481V48.263h3.009V29.167h18.98v-5.439h62.57v5.439h6.58v-5.439h62.572v5.439h18.979v19.096h3.01V115h-6.482v5.25h6.482   v68.126h-6.25v17.359h-9.26v37.268H183.77V249.02z M140.021,248.02h42.748v-6.018h15.275v-37.268h9.26v-17.359h6.25v-66.126h-6.482   V114h6.482V49.263h-3.01V30.167h-18.979v-5.439h-60.572v5.439h-8.58v-5.439h-60.57v5.439h-18.98v19.096h-3.009V114h6.481v7.25   h-6.481v66.126h6.25v17.359h8.911v37.268h15.971v6.018h42.748v-20.643H88.852v-6.133H70.334v-37.498H57.488v-12.5h-6.134v-32.017   h6.019V96.02h-6.365V70.252h6.481V45.37h18.518v-6.365h26.345v6.134h49.053v-6.134h25.998v6.365h18.865v24.883h5.787V96.02h-5.67   v43.21h5.67v32.017h-5.785v12.5h-12.848v37.498h-18.518v6.133h-24.883V248.02z"></path>
	<path fill="#C09559" d="M148.992,277.143h-44.401V248.02h10.028v3.473h24.402v-3.473h9.971V277.143z M105.591,276.143h42.401   V249.02h-7.971v3.473h-26.402v-3.473h-8.028V276.143z"></path>
</g>
<g>
	<polygon fill="#C09559" points="205.672,346.93 139.234,346.93 139.234,345.93 204.672,345.93 204.672,232.742 214.699,232.742    214.699,239.34 232.795,239.34 232.795,221.59 226.545,221.59 226.545,201.842 232.795,201.842 232.795,184.268 226.199,184.268    226.199,164.346 232.449,164.346 232.449,145.942 239.045,145.942 239.045,121.25 232.795,121.25 232.795,102.848 226.545,102.848    226.545,83.099 232.449,83.099 232.449,65.35 226.199,65.35 226.199,45.602 232.795,45.602 232.795,27.853 215.047,27.853    215.047,33.755 195.297,33.755 195.297,27.853 177.549,27.853 177.549,33.755 157.801,33.755 157.801,27.853 139.051,27.853    139.051,21.256 114.706,21.256 114.706,27.853 95.957,27.853 95.957,33.755 76.208,33.755 76.208,27.853 58.459,27.853    58.459,33.755 38.71,33.755 38.71,27.853 21.309,27.853 21.309,45.602 27.558,45.602 27.558,65.003 21.309,65.003 21.309,83.099    27.558,83.099 27.558,102.848 21.309,102.848 21.309,121.25 14.712,121.25 14.712,145.942 21.309,145.942 21.309,164.346    27.558,164.346 27.558,184.268 21.309,184.268 21.309,201.842 27.211,201.842 27.211,221.59 21.309,221.59 21.309,239.34    39.058,239.34 39.058,232.742 49.084,232.742 49.084,345.93 114.411,345.93 114.411,346.93 48.084,346.93 48.084,233.742    40.058,233.742 40.058,240.34 20.309,240.34 20.309,220.59 26.211,220.59 26.211,202.842 20.309,202.842 20.309,183.268    26.558,183.268 26.558,165.346 20.309,165.346 20.309,146.942 13.712,146.942 13.712,120.25 20.309,120.25 20.309,101.848    26.558,101.848 26.558,84.099 20.309,84.099 20.309,64.003 26.558,64.003 26.558,46.602 20.309,46.602 20.309,26.853 39.71,26.853    39.71,32.755 57.459,32.755 57.459,26.853 77.208,26.853 77.208,32.755 94.957,32.755 94.957,26.853 113.706,26.853    113.706,20.256 140.051,20.256 140.051,26.853 158.801,26.853 158.801,32.755 176.549,32.755 176.549,26.853 196.297,26.853    196.297,32.755 214.047,32.755 214.047,26.853 233.795,26.853 233.795,46.602 227.199,46.602 227.199,64.35 233.449,64.35    233.449,84.099 227.545,84.099 227.545,101.848 233.795,101.848 233.795,120.25 240.045,120.25 240.045,146.942 233.449,146.942    233.449,165.346 227.199,165.346 227.199,183.268 233.795,183.268 233.795,202.842 227.545,202.842 227.545,220.59 233.795,220.59    233.795,240.34 213.699,240.34 213.699,233.742 205.672,233.742  "></polygon>
	<path fill="#C09559" d="M105.678,243.291h-7.423v-7.424h7.423V243.291z M99.255,242.291h5.423v-5.424h-5.423V242.291z"></path>
	<path fill="#C09559" d="M155.85,243.291h-7.424v-7.424h7.424V243.291z M149.426,242.291h5.424v-5.424h-5.424V242.291z"></path>
	<path fill="#C09559" d="M105.678,311.949h-7.423v-7.424h7.423V311.949z M99.255,310.949h5.423v-5.424h-5.423V310.949z"></path>
	<path fill="#C09559" d="M155.85,311.949h-7.424v-7.424h7.424V311.949z M149.426,310.949h5.424v-5.424h-5.424V310.949z"></path>
	<path fill="#C09559" d="M105.678,277.488h-7.423v-7.422h7.423V277.488z M99.255,276.488h5.423v-5.422h-5.423V276.488z"></path>
	<polygon fill="#C09559" points="139.908,346.43 138.908,346.43 138.908,326.834 185.367,326.834 185.367,311.949 182.973,311.949    182.973,304.525 185.367,304.525 185.367,277.488 182.625,277.488 182.625,270.066 185.367,270.066 185.367,242.943    182.625,242.943 182.625,235.867 185.4,235.867 185.4,220.59 213.699,220.59 213.699,46.602 40.058,46.602 40.058,220.59    67.486,220.59 67.486,235.867 70.958,235.867 70.958,242.943 67.486,242.943 67.486,270.066 70.958,270.066 70.958,277.488    67.486,277.488 67.486,304.525 70.611,304.525 70.611,311.949 67.371,311.949 67.371,326.834 114.911,326.834 114.911,346.43    113.911,346.43 113.911,327.834 66.371,327.834 66.371,310.949 69.611,310.949 69.611,305.525 66.486,305.525 66.486,276.488    69.958,276.488 69.958,271.066 66.486,271.066 66.486,241.943 69.958,241.943 69.958,236.867 66.486,236.867 66.486,221.59    39.058,221.59 39.058,45.602 214.699,45.602 214.699,221.59 186.4,221.59 186.4,236.867 183.625,236.867 183.625,241.943    186.367,241.943 186.367,271.066 183.625,271.066 183.625,276.488 186.367,276.488 186.367,305.525 183.973,305.525    183.973,310.949 186.367,310.949 186.367,327.834 139.908,327.834  "></polygon>
	<path fill="#C09559" d="M155.85,277.488h-7.771v-7.074h7.771V277.488z M149.078,276.488h5.771v-5.074h-5.771V276.488z"></path>
	<polygon fill="#C09559" points="211.574,353.006 126.358,353.006 126.358,352.006 210.574,352.006 210.574,245.242    239.045,245.242 239.045,215.342 232.449,215.342 232.449,208.09 239.045,208.09 239.045,177.67 232.795,177.67 232.795,170.594    239.045,170.594 239.045,152.019 245.121,152.019 245.121,115.347 239.045,115.347 239.045,96.772 232.621,96.772 232.621,89.522    239.045,89.522 239.045,59.101 232.449,59.101 232.449,52.198 239.045,52.198 239.045,21.256 208.623,21.256 208.623,27.853    201.547,27.853 201.547,21.256 171.125,21.256 171.125,28.026 163.852,28.026 163.875,21.256 145.301,21.256 145.301,15.527    127.052,15.527 127.052,14.527 146.301,14.527 146.301,20.256 164.879,20.256 164.855,27.026 170.125,27.026 170.125,20.256    202.547,20.256 202.547,26.853 207.623,26.853 207.623,20.256 240.045,20.256 240.045,53.198 233.449,53.198 233.449,58.101    240.045,58.101 240.045,90.522 233.621,90.522 233.621,95.772 240.045,95.772 240.045,114.347 246.121,114.347 246.121,153.019    240.045,153.019 240.045,171.594 233.795,171.594 233.795,176.67 240.045,176.67 240.045,209.09 233.449,209.09 233.449,214.342    240.045,214.342 240.045,246.242 211.574,246.242  "></polygon>
	<polygon fill="#C09559" points="42.835,352.506 41.835,352.506 41.835,246.242 13.886,246.242 13.886,214.342 20.309,214.342    20.309,209.09 13.886,209.09 13.886,177.018 20.309,177.018 20.309,171.594 13.886,171.594 13.886,153.019 7.636,153.019    7.636,114.347 13.886,114.347 13.886,95.772 20.135,95.772 20.135,90.522 13.712,90.522 13.712,58.101 20.309,58.101    20.309,52.851 13.712,52.851 13.712,20.256 46.134,20.256 46.134,26.853 51.557,26.853 51.557,20.256 83.631,20.256 83.631,26.852    88.841,26.848 88.884,20.256 107.688,20.256 107.688,14.527 127.052,14.527 127.052,15.527 108.688,15.527 108.688,21.256    89.877,21.256 89.834,27.847 82.631,27.853 82.631,21.256 52.557,21.256 52.557,27.853 45.134,27.853 45.134,21.256 14.712,21.256    14.712,51.851 21.309,51.851 21.309,59.101 14.712,59.101 14.712,89.522 21.135,89.522 21.135,96.772 14.886,96.772    14.886,115.347 8.636,115.347 8.636,152.019 14.886,152.019 14.886,170.594 21.309,170.594 21.309,178.018 14.886,178.018    14.886,208.09 21.309,208.09 21.309,215.342 14.886,215.342 14.886,245.242 42.835,245.242  "></polygon>
	<path fill="none" stroke="#C09559" stroke-miterlimit="10" d="M127.052,352.506"></path>
	<path fill="#C09559" d="M139.06,214.62l-0.064-39.648l0.362-0.104c18.585-5.368,30.594-21.568,30.594-41.271   c0-24.154-18.776-43.075-42.745-43.075l-0.324,0.001c-24.96,0.174-43.077,18.289-43.077,43.074   c0,20.01,11.701,35.771,30.538,41.135l0.363,0.103l0,39.786l-0.577-0.09c-10.81-1.69-21.006-5.473-30.323-11.245v5.46H51.036   v-31.727h6.371c-8.146-13.006-12.447-27.999-12.447-43.422c0-15.278,4.226-30.151,12.229-43.074h-6.153V57.753h32.769v6.153   c12.922-8.003,27.794-12.229,43.074-12.229c15.279,0,30.151,4.226,43.073,12.229v-6.153h32.076v32.769h-5.462   c8.005,12.922,12.231,27.794,12.231,43.074c0,15.413-4.312,30.406-12.479,43.422h5.709v31.727h-32.076v-5.5   c-9.312,5.782-19.507,9.578-30.314,11.285L139.06,214.62z M82.805,201.472l0.768,0.487c9.241,5.864,19.376,9.729,30.132,11.49   l0-37.862c-19.072-5.589-30.901-21.645-30.901-41.991c0-25.36,18.534-43.896,44.07-44.074l0.331-0.001   c24.53,0,43.745,19.36,43.745,44.075c0,20.032-12.137,36.526-30.954,42.126l0.061,37.727c10.755-1.777,20.888-5.655,30.125-11.53   l0.769-0.488v6.314h30.076v-29.727h-6.535l0.495-0.771c8.38-13.03,12.81-28.125,12.81-43.651c0-15.393-4.342-30.367-12.557-43.306   l-0.488-0.768h6.275V58.753h-30.076v6.967l-0.768-0.487c-12.938-8.214-27.913-12.555-43.305-12.555   c-15.393,0-30.368,4.341-43.306,12.555l-0.768,0.487v-6.967H52.036v30.769h6.967l-0.487,0.768   c-8.214,12.939-12.556,27.914-12.556,43.306c0,15.536,4.418,30.631,12.777,43.651l0.494,0.771h-7.195v29.727h30.769V201.472z"></path>
</g>
</svg>