<svg xmlns="http://www.w3.org/2000/svg" xmlns:xlink="http://www.w3.org/1999/xlink" id="Layer_1" x="0px" y="0px" width="253px" height="358.234px" viewBox="0 0 253 358.234" xml:space="preserve">
<rect x="64.484" y="256.721" fill="none" stroke="#000000" stroke-miterlimit="10" width="6.25" height="6.25"></rect>
<rect x="64.398" y="213.088" fill="none" stroke="#000000" stroke-miterlimit="10" width="6.325" height="6.252"></rect>
<rect x="64.398" y="170.268" fill="none" stroke="#000000" stroke-miterlimit="10" width="6.325" height="6.25"></rect>
<rect x="64.398" y="126.868" fill="none" stroke="#000000" stroke-miterlimit="10" width="6.325" height="6.25"></rect>
<rect x="73.743" y="84.974" fill="none" stroke="#000000" stroke-miterlimit="10" width="6.25" height="6.25"></rect>
<rect x="108.347" y="60.089" fill="none" stroke="#000000" stroke-miterlimit="10" width="6.25" height="6.25"></rect>
<rect x="108.231" y="256.721" fill="none" stroke="#000000" stroke-miterlimit="10" width="6.25" height="6.25"></rect>
<path fill="none" stroke="#000000" stroke-miterlimit="10" d="M139.775,282.066"></path>
<path fill="none" stroke="#000000" stroke-miterlimit="10" d="M104.064,313.166l-89.633-0.348V132.423  c0,0-4.77-72.755,40.57-103.119c27.943-18.714,56.355-22.286,71.907-22.278c15.993-0.008,47.356,5.478,71.907,22.973  c44.439,31.666,40.57,102.771,40.57,102.771v180.396h-89.541"></path>
<path fill="none" stroke="#000000" stroke-miterlimit="10" d="M114.48,282.066"></path>
<path fill="none" stroke="#000000" stroke-miterlimit="10" d="M149.844,294.566h70.566V136.751c0,0,1.082-66.582-36.709-93.225  c-22.988-16.207-50.205-17.584-56.793-17.494c-6.588-0.09-33.805,1.287-56.792,17.494c-37.791,26.643-36.708,93.225-36.708,93.225  v157.815h70.658"></path>
<path fill="none" stroke="#000000" stroke-miterlimit="10" d="M145.678,281.721h62.312V139.24c0,0,0.59-60.439-32.123-84.625  c-19.672-14.544-42.924-14.968-48.959-14.905c-6.035-0.063-29.287,0.36-48.959,14.905c-32.712,24.185-32.47,84.625-32.47,84.625  v142.48h62.753v56.07h5.789v-61.975H51.921V140.218c0,0-0.169-57.25,29.98-80.159c18.007-13.683,39.267-14.497,45.007-14.448  c5.741-0.048,27,0.766,45.006,14.448c30.148,22.909,29.633,80.159,29.633,80.159v135.598h-62.008v61.975h6.139V281.721z"></path>
<polyline fill="none" stroke="#000000" stroke-miterlimit="10" points="170.436,126.833 170.467,208.229 139.455,208.229   139.455,198.506 "></polyline>
<polyline fill="none" stroke="#000000" stroke-miterlimit="10" points="114.071,198.506 114.071,208.229 83.351,208.229   83.38,126.833 "></polyline>
<path fill="none" stroke="#000000" stroke-miterlimit="10" d="M149.844,291.559h66.939V137.473c0,0,1.391-65.015-35.096-91.031  c-22.135-15.783-48.332-17.183-54.78-17.099c-6.447-0.084-32.644,1.315-54.78,17.099c-36.487,26.016-35.789,91.031-35.789,91.031  v154.086h67.726"></path>
<path fill="none" stroke="#000000" stroke-miterlimit="10" d="M106.148,337.791h-2.083v-52.945H42.429V138.169  c0,0-0.628-62.194,33.435-87.081c20.555-15.018,44.859-15.765,51.044-15.694c6.184-0.071,30.491,0.676,51.043,15.694  c34.064,24.887,33.436,87.081,33.436,87.081v146.676h-61.543v52.945h-2.084"></path>
<path fill="none" stroke="#000000" stroke-miterlimit="10" d="M114.071,204.988"></path>
<path fill="none" stroke="#000000" stroke-miterlimit="10" d="M139.455,204.988"></path>
<path fill="none" stroke="#000000" stroke-miterlimit="10" d="M114.071,203.137"></path>
<path fill="none" stroke="#000000" stroke-miterlimit="10" d="M139.455,203.137"></path>
<path fill="none" stroke="#000000" stroke-miterlimit="10" d="M114.071,200.475"></path>
<path fill="none" stroke="#000000" stroke-miterlimit="10" d="M139.455,200.475"></path>
<path fill="none" stroke="#000000" stroke-miterlimit="10" d="M108.231,337.791h-2.083V283.34h-62.2V138.621  c0,0-0.607-61.226,32.712-85.726c20.479-15.059,44.766-15.195,50.247-15.098c5.483-0.097,29.768,0.039,50.249,15.098  c33.318,24.5,32.711,85.726,32.711,85.726V283.34H147.76v54.451h-2.082"></path>
<rect x="183.174" y="256.721" fill="none" stroke="#000000" stroke-miterlimit="10" width="6.25" height="6.25"></rect>
<rect x="183.092" y="213.088" fill="none" stroke="#000000" stroke-miterlimit="10" width="6.326" height="6.252"></rect>
<rect x="182.746" y="170.268" fill="none" stroke="#000000" stroke-miterlimit="10" width="6.324" height="6.25"></rect>
<rect x="182.746" y="126.868" fill="none" stroke="#000000" stroke-miterlimit="10" width="6.324" height="6.25"></rect>
<rect x="173.57" y="84.974" fill="none" stroke="#000000" stroke-miterlimit="10" width="6.248" height="6.25"></rect>
<rect x="139.658" y="60.089" fill="none" stroke="#000000" stroke-miterlimit="10" width="6.25" height="6.25"></rect>
<rect x="139.428" y="256.721" fill="none" stroke="#000000" stroke-miterlimit="10" width="6.25" height="6.25"></rect>
<path fill="none" stroke="#000000" stroke-miterlimit="10" d="M114.071,198.506v-9.256h-12.042l-0.015-54.255  c-0.019-0.611,0,0.618,0,0c0-20.95,11.116-38.854,24.845-38.854c13.731,0,24.879,17.917,24.879,38.867c0,0.469,0.01-0.466,0,0l0,0  l0.051,54.242h-12.334v9.256"></path>
<path fill="none" stroke="#000000" stroke-miterlimit="10" d="M83.38,126.833c0-27.634,19.503-49.516,43.526-49.516  c24.024,0,43.53,21.881,43.53,49.516"></path>
<g>
	<polygon fill="none" stroke="#000000" stroke-miterlimit="10" points="95.63,102.001 157.779,102.001 157.779,164.498    139.377,164.498 139.377,157.9 151.529,157.9 151.529,108.597 101.88,108.597 101.88,157.9 114.379,157.9 114.379,164.498    95.63,164.498  "></polygon>
	<polygon fill="none" stroke="#000000" stroke-miterlimit="10" points="114.032,177.344 83.131,177.344 83.131,89.849    170.277,89.849 170.277,176.996 139.377,176.996 139.377,189.494 182.777,189.494 182.777,77.35 70.632,77.35 70.632,189.494    114.032,189.494  "></polygon>
	<polyline fill="none" stroke="#000000" stroke-miterlimit="10" points="64.267,226.645 54.661,226.645 54.661,236.367    23.066,236.367 23.066,29.783 229.648,29.783 229.648,236.367 198.402,236.367 198.402,226.645 188.82,226.645  "></polyline>
	<polygon fill="none" stroke="#000000" stroke-miterlimit="10" points="216.803,208.244 216.803,201.82 223.486,201.82    223.486,195.92 216.803,195.92 216.803,189.322 226.611,189.322 226.611,171.094 216.803,171.094 216.803,164.498 223.834,164.498    223.834,157.9 216.803,157.9 216.803,152.171 226.959,152.171 226.959,139.499 216.803,139.499 216.803,127.173 226.959,127.173    226.959,114.847 216.803,114.847 216.803,108.25 223.834,108.25 223.834,102.001 216.803,102.001 216.803,95.577 226.959,95.577    226.959,77.35 216.803,77.35 216.803,71.1 223.486,71.1 223.486,64.503 216.803,64.503 216.803,58.253 226.525,58.253    226.525,33.255 201.527,33.255 201.527,42.282 195.74,42.282 195.74,36.496 189.027,36.496 189.027,42.282 182.777,42.282    182.777,33.255 164.145,33.255 164.145,42.282 158.012,42.282 158.012,36.148 151.762,36.148 151.762,42.282 145.627,42.282    145.627,33.255 132.896,33.255 132.896,42.282 120.601,42.282 120.601,33.255 107.898,33.255 107.898,42.629 101.648,42.629    101.648,36.496 95.399,36.496 95.399,42.629 89.265,42.629 89.265,33.255 70.632,33.255 70.632,42.282 64.729,42.282    64.729,36.496 58.018,36.496 58.018,42.282 51.536,42.282 51.536,33.255 26.885,33.255 26.885,58.253 36.259,58.253 36.259,64.503    29.663,64.503 29.663,71.1 36.259,71.1 36.259,77.35 26.885,77.35 26.885,95.577 36.259,95.577 36.259,102.001 29.663,102.001    29.663,108.25 36.259,108.25 36.259,114.847 26.885,114.847 26.885,127.173 36.259,127.173 36.259,139.499 26.885,139.499    26.885,152.084 36.259,152.084 36.259,157.9 29.663,157.9 29.663,164.498 36.433,164.498 36.433,170.746 26.885,170.746    26.885,189.322 36.259,189.322 36.259,195.92 29.663,195.92 29.663,202.168 36.259,202.168 36.259,208.244 26.538,208.244    26.538,233.242 51.883,233.242 51.883,223.869 67.044,223.869 67.044,317.264 114.032,317.264 114.032,308.471 76.535,308.471    76.535,223.869 114.379,223.869 114.379,208.244 51.883,208.244 51.883,58.253 201.527,58.253 201.527,208.244 139.377,208.244    139.377,223.869 176.898,223.869 176.898,308.123 139.402,308.123 139.402,317.264 151.668,317.264 186.041,317.264    186.041,223.869 201.404,223.869 201.527,233.242 226.871,233.242 226.871,208.244  "></polygon>
	<polyline fill="none" stroke="#000000" stroke-miterlimit="10" points="101.764,317.264 101.764,333.584 51.768,333.584    51.768,248.52 11.145,248.52 11.145,16.937 242.279,17.284 242.279,248.865 201.527,248.865 201.527,333.584 151.746,333.584    151.77,317.264  "></polyline>
	<polyline fill="none" stroke="#000000" stroke-miterlimit="10" points="64.267,226.645 64.267,321.084 98.061,321.084    98.061,329.994 54.776,329.994 54.776,245.395 14.27,245.395 14.269,20.756 126.763,20.756  "></polyline>
	<polyline fill="none" stroke="#000000" stroke-miterlimit="10" points="189.027,226.645 189.027,321.084 154.887,321.084    154.887,329.994 198.402,329.994 198.402,245.742 239.371,245.742 239.371,20.756 126.184,20.756  "></polyline>
</g>
<g>
	<polygon fill="none" stroke="#000000" stroke-miterlimit="10" points="126.271,64.734 125.924,64.734 76.622,64.734    76.622,177.229 89.236,177.229 89.236,208.359 114.235,208.359 114.235,226.992 126.271,226.992 139.348,226.992 139.348,208.359    164.346,208.359 164.346,176.881 176.963,176.881 176.963,64.734  "></polygon>
	<polygon fill="none" stroke="#000000" stroke-miterlimit="10" points="214.055,114.5 214.055,48.763 211.045,48.763    211.045,29.667 192.066,29.667 192.066,24.228 130.494,24.228 130.494,29.667 126.271,29.667 126.097,29.667 122.915,29.667    122.915,24.228 61.345,24.228 61.345,29.667 42.364,29.667 42.364,48.763 39.355,48.763 39.355,114.5 45.836,114.5 45.836,120.749    39.355,120.749 39.355,187.875 45.605,187.875 45.605,205.234 54.516,205.234 54.516,242.502 70.487,242.502 70.487,248.52    114.235,248.52 114.235,226.877 89.352,226.877 89.352,220.744 70.834,220.744 70.834,183.246 57.988,183.246 57.988,170.746    51.854,170.746 51.854,139.729 57.873,139.729 57.873,95.52 51.507,95.52 51.507,70.752 57.988,70.752 57.988,45.87 76.506,45.87    76.506,39.504 101.851,39.504 101.851,45.638 126.097,45.638 126.271,45.638 151.904,45.638 151.904,39.504 176.902,39.504    176.902,45.87 195.768,45.87 195.768,70.752 201.555,70.752 201.555,95.52 195.885,95.52 195.885,139.729 201.555,139.729    201.555,170.746 195.77,170.746 195.77,183.246 182.922,183.246 182.922,220.744 164.404,220.744 164.404,226.877 139.521,226.877    139.521,248.52 183.27,248.52 183.27,242.502 198.545,242.502 198.545,205.234 207.805,205.234 207.805,187.875 214.055,187.875    214.055,120.749 207.572,120.749 207.572,114.5  "></polygon>
	<polygon fill="none" stroke="#000000" stroke-miterlimit="10" points="148.666,258.357 148.666,264.605 239.633,264.605    239.17,2.238 126.271,2.238 126.097,2.238 14.588,2.238 14.125,264.605 105.091,264.605 105.091,258.357 20.722,258.357    20.722,8.256 126.185,8.256 233.035,8.256 233.035,258.357  "></polygon>
	<polygon fill="none" stroke="#000000" stroke-miterlimit="10" points="148.492,276.643 148.492,248.52 139.521,248.52    139.521,251.992 114.119,251.992 114.119,248.52 105.091,248.52 105.091,276.643  "></polygon>
</g>
<g>
	<path fill="none" stroke="#000000" stroke-miterlimit="10" d="M245.447,108.597V46.102V14.854h-93.744v-6.25h-24.304h-1.041   h-24.305v6.25H8.31L7.962,46.102v62.496H1.713v49.997h6.249v93.744H36.78v105.896h90.272h0.347h89.578V252.338h28.818v-93.744   h5.555v-49.997H245.447z M114.411,346.43H48.584V233.242h-9.027v6.598H20.809v-18.75h5.902v-18.748h-5.902v-18.574h6.249v-18.922   h-6.249v-18.403h-6.597V120.75h6.597v-18.402h6.249V83.599h-6.249V64.503h6.249V46.102h-6.249V27.353H39.21v5.902h18.749v-5.902   h18.749v5.902h18.749v-5.902h18.749v-6.597h12.499h0.348h12.499v6.597h18.75v5.902h18.748v-5.902h18.748v5.902h18.75v-5.902h18.748   v18.749h-6.596V64.85h6.25v18.749h-5.904v18.749h6.25v18.402h6.25v25.693h-6.596v18.403h-6.25v18.922h6.596v18.574h-6.25v18.748   h6.25v18.75h-19.096v-6.598h-9.027V346.43h-65.938"></path>
	<rect x="98.755" y="236.367" fill="none" stroke="#000000" stroke-miterlimit="10" width="6.423" height="6.424"></rect>
	<rect x="148.926" y="236.367" fill="none" stroke="#000000" stroke-miterlimit="10" width="6.424" height="6.424"></rect>
	<rect x="98.755" y="305.025" fill="none" stroke="#000000" stroke-miterlimit="10" width="6.423" height="6.424"></rect>
	<rect x="148.926" y="305.025" fill="none" stroke="#000000" stroke-miterlimit="10" width="6.424" height="6.424"></rect>
	<rect x="98.755" y="270.566" fill="none" stroke="#000000" stroke-miterlimit="10" width="6.423" height="6.422"></rect>
	<polyline fill="none" stroke="#000000" stroke-miterlimit="10" points="114.411,346.43 114.411,327.334 66.871,327.334    66.871,311.449 70.111,311.449 70.111,305.025 66.986,305.025 66.986,276.988 70.458,276.988 70.458,270.566 66.986,270.566    66.986,242.443 70.458,242.443 70.458,236.367 66.986,236.367 66.986,221.09 39.558,221.09 39.558,46.102 126.358,46.102    214.199,46.102 214.199,221.09 185.9,221.09 185.9,236.367 183.125,236.367 183.125,242.443 185.867,242.443 185.867,270.566    183.125,270.566 183.125,276.988 185.867,276.988 185.867,305.025 183.473,305.025 183.473,311.449 185.867,311.449    185.867,327.334 139.408,327.334 139.408,346.43  "></polyline>
	<rect x="148.578" y="270.914" fill="none" stroke="#000000" stroke-miterlimit="10" width="6.771" height="6.074"></rect>
	<polyline fill="none" stroke="#000000" stroke-miterlimit="10" points="127.052,15.027 145.801,15.027 145.801,20.756    164.377,20.756 164.354,27.526 170.625,27.526 170.625,20.756 202.047,20.756 202.047,27.353 208.123,27.353 208.123,20.756    239.545,20.756 239.545,52.698 232.949,52.698 232.949,58.601 239.545,58.601 239.545,90.022 233.121,90.022 233.121,96.272    239.545,96.272 239.545,114.847 245.621,114.847 245.621,152.519 239.545,152.519 239.545,171.094 233.295,171.094 233.295,177.17    239.545,177.17 239.545,208.59 232.949,208.59 232.949,214.842 239.545,214.842 239.545,245.742 211.074,245.742 211.074,352.506    126.358,352.506  "></polyline>
	<polyline fill="none" stroke="#000000" stroke-miterlimit="10" points="127.052,352.506 42.335,352.506 42.335,245.742    14.386,245.742 14.386,214.842 20.809,214.842 20.809,208.59 14.386,208.59 14.386,177.518 20.809,177.518 20.809,171.094    14.386,171.094 14.386,152.519 8.136,152.519 8.136,114.847 14.386,114.847 14.386,96.272 20.635,96.272 20.635,90.022    14.212,90.022 14.212,58.601 20.809,58.601 20.809,52.351 14.212,52.351 14.212,20.756 45.634,20.756 45.634,27.353 52.057,27.353    52.057,20.756 83.131,20.756 83.131,27.353 89.337,27.348 89.381,20.756 108.188,20.756 108.188,15.027 127.052,15.027  "></polyline>
	<path fill="none" stroke="#000000" stroke-miterlimit="10" d="M208.297,133.596c0-16.029-4.635-30.974-12.635-43.574h5.865V58.253   h-31.076v6.557c-12.6-7.999-27.543-12.633-43.573-12.633c-16.029,0-30.974,4.634-43.574,12.633v-6.557H51.536v31.769h6.557   c-7.999,12.6-12.633,27.545-12.633,43.574c0,16.176,4.722,31.25,12.856,43.922h-6.78v30.727h31.769v-5.863   c9.211,5.846,19.674,9.898,30.9,11.654l0-38.824c-19.646-5.594-30.901-22.062-30.901-41.615c0-24.065,17.187-43.39,43.574-43.574   c24.999-0.173,43.573,19.509,43.573,43.574c0,19.719-11.717,36.195-30.955,41.752l0.062,38.688   c11.217-1.771,21.68-5.836,30.893-11.695v5.904h31.076v-30.727h-6.119C203.559,164.844,208.297,149.771,208.297,133.596z"></path>
</g>
</svg>