<svg xmlns="http://www.w3.org/2000/svg" xmlns:xlink="http://www.w3.org/1999/xlink" id="Layer_1" x="0px" y="0px" width="95px" height="133px" viewBox="0 0 95 133" xml:space="preserve">
<rect x="25.049" y="94.46" fill="none" stroke="#C09559" stroke-width="1.44" stroke-miterlimit="10" width="2.287" height="2.286"></rect>
<rect x="25.018" y="78.495" fill="none" stroke="#C09559" stroke-width="1.44" stroke-miterlimit="10" width="2.314" height="2.287"></rect>
<rect x="28.437" y="31.62" fill="none" stroke="#C09559" stroke-width="1.44" stroke-miterlimit="10" width="2.287" height="2.287"></rect>
<rect x="41.098" y="22.515" fill="none" stroke="#C09559" stroke-width="1.44" stroke-miterlimit="10" width="2.287" height="2.287"></rect>
<rect x="41.056" y="94.46" fill="none" stroke="#C09559" stroke-width="1.44" stroke-miterlimit="10" width="2.286" height="2.286"></rect>
<path fill="none" stroke="#C09559" stroke-width="1.44" stroke-miterlimit="10" d="M52.598,103.733"></path>
<path fill="none" stroke="#C09559" stroke-width="1.44" stroke-miterlimit="10" d="M43.342,103.733"></path>
<path fill="none" stroke="#C09559" stroke-width="1.44" stroke-miterlimit="10" d="M56.281,108.307h25.819V50.564  c0,0,0.396-24.362-13.431-34.11c-8.411-5.93-18.37-6.434-20.78-6.401c-2.411-0.033-12.369,0.471-20.78,6.401  c-13.827,9.748-13.431,34.11-13.431,34.11v57.742h25.853"></path>
<polyline fill="none" stroke="#C09559" stroke-width="1.44" stroke-miterlimit="10" points="63.816,46.936 63.827,76.717   52.48,76.717 52.48,73.159 "></polyline>
<polyline fill="none" stroke="#C09559" stroke-width="1.44" stroke-miterlimit="10" points="43.192,73.159 43.192,76.717   31.953,76.717 31.963,46.936 "></polyline>
<path fill="none" stroke="#C09559" stroke-width="1.44" stroke-miterlimit="10" d="M43.192,75.531"></path>
<path fill="none" stroke="#C09559" stroke-width="1.44" stroke-miterlimit="10" d="M52.48,75.531"></path>
<path fill="none" stroke="#C09559" stroke-width="1.44" stroke-miterlimit="10" d="M43.192,74.854"></path>
<path fill="none" stroke="#C09559" stroke-width="1.44" stroke-miterlimit="10" d="M52.48,74.854"></path>
<path fill="none" stroke="#C09559" stroke-width="1.44" stroke-miterlimit="10" d="M43.192,73.879"></path>
<path fill="none" stroke="#C09559" stroke-width="1.44" stroke-miterlimit="10" d="M52.48,73.879"></path>
<rect x="68.477" y="94.46" fill="none" stroke="#C09559" stroke-width="1.44" stroke-miterlimit="10" width="2.286" height="2.286"></rect>
<rect x="68.446" y="78.495" fill="none" stroke="#C09559" stroke-width="1.44" stroke-miterlimit="10" width="2.314" height="2.287"></rect>
<rect x="64.963" y="31.62" fill="none" stroke="#C09559" stroke-width="1.44" stroke-miterlimit="10" width="2.286" height="2.287"></rect>
<rect x="52.555" y="22.515" fill="none" stroke="#C09559" stroke-width="1.44" stroke-miterlimit="10" width="2.287" height="2.287"></rect>
<rect x="52.47" y="94.46" fill="none" stroke="#C09559" stroke-width="1.44" stroke-miterlimit="10" width="2.287" height="2.286"></rect>
<g>
	<polygon fill="none" stroke="#C09559" stroke-width="1.44" stroke-miterlimit="10" points="36.445,37.85 59.185,37.85    59.185,60.717 52.452,60.717 52.452,58.303 56.898,58.303 56.898,40.263 38.732,40.263 38.732,58.303 43.306,58.303 43.306,60.717    36.445,60.717  "></polygon>
	<polygon fill="none" stroke="#C09559" stroke-width="1.44" stroke-miterlimit="10" points="80.781,76.723 80.781,74.372    83.227,74.372 83.227,72.213 80.781,72.213 80.781,69.799 84.37,69.799 84.37,63.13 80.781,63.13 80.781,60.717 83.354,60.717    83.354,58.303 80.781,58.303 80.781,56.206 84.497,56.206 84.497,51.569 80.781,51.569 80.781,47.06 84.497,47.06 84.497,42.55    80.781,42.55 80.781,40.136 83.354,40.136 83.354,37.85 80.781,37.85 80.781,35.499 84.497,35.499 84.497,28.83 80.781,28.83    80.781,26.543 83.227,26.543 83.227,24.13 80.781,24.13 80.781,21.843 84.338,21.843 84.338,12.696 75.191,12.696 75.191,15.999    73.074,15.999 73.074,13.882 70.618,13.882 70.618,15.999 68.331,15.999 68.331,12.696 61.514,12.696 61.514,15.999 59.27,15.999    59.27,13.755 56.983,13.755 56.983,15.999 54.738,15.999 54.738,12.696 50.08,12.696 50.08,15.999 45.582,15.999 45.582,12.696    40.934,12.696 40.934,16.126 38.647,16.126 38.647,13.882 36.361,13.882 36.361,16.126 34.117,16.126 34.117,12.696 27.299,12.696    27.299,15.999 25.139,15.999 25.139,13.882 22.684,13.882 22.684,15.999 20.312,15.999 20.312,12.696 11.292,12.696 11.292,21.843    14.722,21.843 14.722,24.13 12.309,24.13 12.309,26.543 14.722,26.543 14.722,28.83 11.292,28.83 11.292,35.499 14.722,35.499    14.722,37.85 12.309,37.85 12.309,40.136 14.722,40.136 14.722,42.55 11.292,42.55 11.292,47.06 14.722,47.06 14.722,51.569    11.292,51.569 11.292,56.174 14.722,56.174 14.722,58.303 12.309,58.303 12.309,60.717 14.786,60.717 14.786,63.002 11.292,63.002    11.292,69.799 14.722,69.799 14.722,72.213 12.309,72.213 12.309,74.499 14.722,74.499 14.722,76.723 11.165,76.723 11.165,85.869    20.439,85.869 20.439,82.439 25.986,82.439 25.986,116.611 43.179,116.611 43.179,113.394 29.458,113.394 29.458,82.439    43.306,82.439 43.306,76.723 20.439,76.723 20.439,21.843 75.191,21.843 75.191,76.723 52.452,76.723 52.452,82.439 66.181,82.439    66.181,113.267 52.461,113.267 52.461,116.611 56.948,116.611 69.525,116.611 69.525,82.439 75.146,82.439 75.191,85.869    84.465,85.869 84.465,76.723  "></polygon>
	<polyline fill="none" stroke="#C09559" stroke-width="1.44" stroke-miterlimit="10" points="24.97,83.455 24.97,118.009    37.335,118.009 37.335,121.27 21.498,121.27 21.498,90.315 6.677,90.315 6.676,8.124 47.836,8.124  "></polyline>
	<polyline fill="none" stroke="#C09559" stroke-width="1.44" stroke-miterlimit="10" points="70.618,83.455 70.618,118.009    58.126,118.009 58.126,121.27 74.049,121.27 74.049,90.442 89.038,90.442 89.038,8.124 47.625,8.124  "></polyline>
</g>
<g>
	<polygon fill="none" stroke="#C09559" stroke-width="1.44" stroke-miterlimit="10" points="47.656,24.214 47.53,24.214    29.49,24.214 29.49,65.374 34.106,65.374 34.106,76.765 43.252,76.765 43.252,83.582 47.656,83.582 52.441,83.582 52.441,76.765    61.587,76.765 61.587,65.247 66.204,65.247 66.204,24.214  "></polygon>
	<polygon fill="none" stroke="#C09559" stroke-width="1.44" stroke-miterlimit="10" points="79.775,42.423 79.775,18.371    78.674,18.371 78.674,11.383 71.729,11.383 71.729,9.394 49.201,9.394 49.201,11.383 47.656,11.383 47.593,11.383 46.428,11.383    46.428,9.394 23.901,9.394 23.901,11.383 16.956,11.383 16.956,18.371 15.855,18.371 15.855,42.423 18.227,42.423 18.227,44.709    15.855,44.709 15.855,69.27 18.142,69.27 18.142,75.621 21.402,75.621 21.402,89.257 27.246,89.257 27.246,91.459 43.252,91.459    43.252,83.54 34.148,83.54 34.148,81.296 27.373,81.296 27.373,67.576 22.672,67.576 22.672,63.002 20.428,63.002 20.428,51.654    22.63,51.654 22.63,35.478 20.301,35.478 20.301,26.416 22.672,26.416 22.672,17.312 29.448,17.312 29.448,14.983 38.722,14.983    38.722,17.227 47.593,17.227 47.656,17.227 57.035,17.227 57.035,14.983 66.182,14.983 66.182,17.312 73.084,17.312 73.084,26.416    75.202,26.416 75.202,35.478 73.127,35.478 73.127,51.654 75.202,51.654 75.202,63.002 73.085,63.002 73.085,67.576 68.385,67.576    68.385,81.296 61.609,81.296 61.609,83.54 52.505,83.54 52.505,91.459 68.512,91.459 68.512,89.257 74.101,89.257 74.101,75.621    77.488,75.621 77.488,69.27 79.775,69.27 79.775,44.709 77.403,44.709 77.403,42.423  "></polygon>
	<polygon fill="none" stroke="#C09559" stroke-width="1.44" stroke-miterlimit="10" points="55.787,101.748 55.787,91.459    52.505,91.459 52.505,92.729 43.21,92.729 43.21,91.459 39.907,91.459 39.907,101.748  "></polygon>
</g>
<g>
	
		<rect x="37.588" y="112.133" fill="none" stroke="#C09559" stroke-width="1.44" stroke-miterlimit="10" width="2.35" height="2.351"></rect>
	
		<rect x="55.945" y="112.133" fill="none" stroke="#C09559" stroke-width="1.44" stroke-miterlimit="10" width="2.351" height="2.351"></rect>
	
		<rect x="37.588" y="99.525" fill="none" stroke="#C09559" stroke-width="1.44" stroke-miterlimit="10" width="2.35" height="2.35"></rect>
	<polygon fill="none" stroke="#C09559" stroke-width="1.44" stroke-miterlimit="10" points="52.463,127.283 52.463,120.296    69.462,120.296 69.462,114.483 68.586,114.483 68.586,112.133 69.462,112.133 69.462,101.875 68.459,101.875 68.459,99.525    69.462,99.525 69.462,89.235 68.459,89.235 68.459,87.012 69.474,87.012 69.474,81.423 79.828,81.423 79.828,17.396 47.688,17.396    15.929,17.396 15.929,81.423 25.965,81.423 25.965,87.012 27.235,87.012 27.235,89.235 25.965,89.235 25.965,99.525 27.235,99.525    27.235,101.875 25.965,101.875 25.965,112.133 27.108,112.133 27.108,114.483 25.922,114.483 25.922,120.296 43.317,120.296    43.317,127.283  "></polygon>
	
		<rect x="55.818" y="99.652" fill="none" stroke="#C09559" stroke-width="1.44" stroke-miterlimit="10" width="2.478" height="2.223"></rect>
	<path fill="none" stroke="#C09559" stroke-width="1.44" stroke-miterlimit="10" d="M47.688,129.506"></path>
	<polyline fill="none" stroke="#C09559" stroke-width="1.44" stroke-miterlimit="10" points="47.942,6.027 54.803,6.027    54.803,8.123 61.599,8.123 61.591,10.6 63.885,10.6 63.885,8.123 75.382,8.123 75.382,10.537 77.604,10.537 77.604,8.123    89.102,8.123 89.102,19.81 86.688,19.81 86.688,21.97 89.102,21.97 89.102,33.467 86.752,33.467 86.752,35.753 89.102,35.753    89.102,42.55 91.325,42.55 91.325,56.333 89.102,56.333 89.102,63.13 86.815,63.13 86.815,65.353 89.102,65.353 89.102,76.849    86.688,76.849 86.688,79.137 89.102,79.137 89.102,90.442 78.685,90.442  "></polyline>
	<polyline fill="none" stroke="#C09559" stroke-width="1.44" stroke-miterlimit="10" points="16.945,90.442 6.719,90.442    6.719,79.137 9.069,79.137 9.069,76.849 6.719,76.849 6.719,65.48 9.069,65.48 9.069,63.13 6.719,63.13 6.719,56.333 4.433,56.333    4.433,42.55 6.719,42.55 6.719,35.753 9.006,35.753 9.006,33.467 6.655,33.467 6.655,21.97 9.069,21.97 9.069,19.684 6.655,19.684    6.655,8.123 18.152,8.123 18.152,10.537 20.502,10.537 20.502,8.123 31.872,8.123 31.872,10.537 34.143,10.535 34.159,8.123    41.04,8.123 41.04,6.027 47.942,6.027  "></polyline>
	<path fill="none" stroke="#C09559" stroke-width="1.44" stroke-miterlimit="10" d="M77.668,49.41   c0-5.865-1.695-11.333-4.622-15.943h2.146V21.843h-11.37v2.399c-4.61-2.927-10.078-4.623-15.943-4.623   c-5.864,0-11.333,1.696-15.943,4.623v-2.399H20.312v11.624h2.399c-2.926,4.61-4.622,10.078-4.622,15.943   c0,5.918,1.728,11.434,4.704,16.07h-2.48v11.242h11.624v-2.146c3.37,2.139,7.199,3.622,11.306,4.264V64.636   c-7.188-2.046-11.306-8.072-11.306-15.226c0-8.806,6.289-15.877,15.943-15.943c9.147-0.063,15.943,7.138,15.943,15.943   c0,7.215-4.287,13.243-11.326,15.276l0.023,14.154c4.104-0.647,7.933-2.135,11.303-4.279v2.161h11.37V65.48h-2.238   C75.935,60.843,77.668,55.328,77.668,49.41z"></path>
</g>
</svg>