<svg xmlns="http://www.w3.org/2000/svg" xmlns:xlink="http://www.w3.org/1999/xlink" id="Layer_1" x="0px" y="0px" width="253px" height="358.234px" viewBox="0 0 253 358.234" xml:space="preserve">
<rect x="104.049" y="210.46" fill="none" stroke="#C09559" stroke-width="1.44" stroke-miterlimit="10" width="2.287" height="2.286"></rect>
<rect x="104.018" y="194.495" fill="none" stroke="#C09559" stroke-width="1.44" stroke-miterlimit="10" width="2.314" height="2.287"></rect>
<rect x="107.437" y="147.62" fill="none" stroke="#C09559" stroke-width="1.44" stroke-miterlimit="10" width="2.287" height="2.287"></rect>
<rect x="120.098" y="138.515" fill="none" stroke="#C09559" stroke-width="1.44" stroke-miterlimit="10" width="2.287" height="2.287"></rect>
<rect x="120.056" y="210.46" fill="none" stroke="#C09559" stroke-width="1.44" stroke-miterlimit="10" width="2.286" height="2.286"></rect>
<path fill="none" stroke="#C09559" stroke-width="1.44" stroke-miterlimit="10" d="M131.598,219.733"></path>
<path fill="none" stroke="#C09559" stroke-width="1.44" stroke-miterlimit="10" d="M122.342,219.733"></path>
<path fill="none" stroke="#C09559" stroke-width="1.44" stroke-miterlimit="10" d="M135.281,224.307h25.819v-57.742  c0,0,0.396-24.362-13.431-34.11c-8.411-5.93-18.37-6.434-20.78-6.401c-2.411-0.033-12.369,0.471-20.78,6.401  c-13.827,9.748-13.431,34.11-13.431,34.11v57.742h25.853"></path>
<polyline fill="none" stroke="#C09559" stroke-width="1.44" stroke-miterlimit="10" points="142.816,162.936 142.827,192.717   131.48,192.717 131.48,189.159 "></polyline>
<polyline fill="none" stroke="#C09559" stroke-width="1.44" stroke-miterlimit="10" points="122.192,189.159 122.192,192.717   110.953,192.717 110.963,162.936 "></polyline>
<path fill="none" stroke="#C09559" stroke-width="1.44" stroke-miterlimit="10" d="M122.192,191.531"></path>
<path fill="none" stroke="#C09559" stroke-width="1.44" stroke-miterlimit="10" d="M131.48,191.531"></path>
<path fill="none" stroke="#C09559" stroke-width="1.44" stroke-miterlimit="10" d="M122.192,190.854"></path>
<path fill="none" stroke="#C09559" stroke-width="1.44" stroke-miterlimit="10" d="M131.48,190.854"></path>
<path fill="none" stroke="#C09559" stroke-width="1.44" stroke-miterlimit="10" d="M122.192,189.879"></path>
<path fill="none" stroke="#C09559" stroke-width="1.44" stroke-miterlimit="10" d="M131.48,189.879"></path>
<rect x="147.477" y="210.46" fill="none" stroke="#C09559" stroke-width="1.44" stroke-miterlimit="10" width="2.286" height="2.286"></rect>
<rect x="147.446" y="194.495" fill="none" stroke="#C09559" stroke-width="1.44" stroke-miterlimit="10" width="2.314" height="2.287"></rect>
<rect x="143.963" y="147.62" fill="none" stroke="#C09559" stroke-width="1.44" stroke-miterlimit="10" width="2.286" height="2.287"></rect>
<rect x="131.555" y="138.515" fill="none" stroke="#C09559" stroke-width="1.44" stroke-miterlimit="10" width="2.287" height="2.287"></rect>
<rect x="131.47" y="210.46" fill="none" stroke="#C09559" stroke-width="1.44" stroke-miterlimit="10" width="2.287" height="2.286"></rect>
<g>
	<polygon fill="none" stroke="#C09559" stroke-width="1.44" stroke-miterlimit="10" points="115.445,153.85 138.185,153.85    138.185,176.717 131.452,176.717 131.452,174.303 135.898,174.303 135.898,156.263 117.732,156.263 117.732,174.303    122.306,174.303 122.306,176.717 115.445,176.717  "></polygon>
	<polygon fill="none" stroke="#C09559" stroke-width="1.44" stroke-miterlimit="10" points="159.781,192.723 159.781,190.372    162.227,190.372 162.227,188.213 159.781,188.213 159.781,185.799 163.37,185.799 163.37,179.13 159.781,179.13 159.781,176.717    162.354,176.717 162.354,174.303 159.781,174.303 159.781,172.206 163.497,172.206 163.497,167.569 159.781,167.569    159.781,163.06 163.497,163.06 163.497,158.55 159.781,158.55 159.781,156.136 162.354,156.136 162.354,153.85 159.781,153.85    159.781,151.499 163.497,151.499 163.497,144.83 159.781,144.83 159.781,142.543 162.227,142.543 162.227,140.13 159.781,140.13    159.781,137.843 163.338,137.843 163.338,128.696 154.191,128.696 154.191,131.999 152.074,131.999 152.074,129.882    149.618,129.882 149.618,131.999 147.331,131.999 147.331,128.696 140.514,128.696 140.514,131.999 138.27,131.999 138.27,129.755    135.983,129.755 135.983,131.999 133.738,131.999 133.738,128.696 129.08,128.696 129.08,131.999 124.582,131.999 124.582,128.696    119.934,128.696 119.934,132.126 117.647,132.126 117.647,129.882 115.361,129.882 115.361,132.126 113.117,132.126    113.117,128.696 106.299,128.696 106.299,131.999 104.139,131.999 104.139,129.882 101.684,129.882 101.684,131.999    99.312,131.999 99.312,128.696 90.292,128.696 90.292,137.843 93.722,137.843 93.722,140.13 91.309,140.13 91.309,142.543    93.722,142.543 93.722,144.83 90.292,144.83 90.292,151.499 93.722,151.499 93.722,153.85 91.309,153.85 91.309,156.136    93.722,156.136 93.722,158.55 90.292,158.55 90.292,163.06 93.722,163.06 93.722,167.569 90.292,167.569 90.292,172.174    93.722,172.174 93.722,174.303 91.309,174.303 91.309,176.717 93.786,176.717 93.786,179.002 90.292,179.002 90.292,185.799    93.722,185.799 93.722,188.213 91.309,188.213 91.309,190.499 93.722,190.499 93.722,192.723 90.165,192.723 90.165,201.869    99.439,201.869 99.439,198.439 104.986,198.439 104.986,232.611 122.179,232.611 122.179,229.394 108.458,229.394 108.458,198.439    122.306,198.439 122.306,192.723 99.439,192.723 99.439,137.843 154.191,137.843 154.191,192.723 131.452,192.723 131.452,198.439    145.181,198.439 145.181,229.267 131.461,229.267 131.461,232.611 135.948,232.611 148.525,232.611 148.525,198.439    154.146,198.439 154.191,201.869 163.465,201.869 163.465,192.723  "></polygon>
	<polyline fill="none" stroke="#C09559" stroke-width="1.44" stroke-miterlimit="10" points="103.97,199.455 103.97,234.009    116.335,234.009 116.335,237.27 100.498,237.27 100.498,206.315 85.677,206.315 85.676,124.124 126.836,124.124  "></polyline>
	<polyline fill="none" stroke="#C09559" stroke-width="1.44" stroke-miterlimit="10" points="149.618,199.455 149.618,234.009    137.126,234.009 137.126,237.27 153.049,237.27 153.049,206.442 168.038,206.442 168.038,124.124 126.625,124.124  "></polyline>
</g>
<g>
	<polygon fill="none" stroke="#C09559" stroke-width="1.44" stroke-miterlimit="10" points="126.656,140.214 126.53,140.214    108.49,140.214 108.49,181.374 113.106,181.374 113.106,192.765 122.252,192.765 122.252,199.582 126.656,199.582 131.441,199.582    131.441,192.765 140.587,192.765 140.587,181.247 145.204,181.247 145.204,140.214  "></polygon>
	<polygon fill="none" stroke="#C09559" stroke-width="1.44" stroke-miterlimit="10" points="158.775,158.423 158.775,134.371    157.674,134.371 157.674,127.383 150.729,127.383 150.729,125.394 128.201,125.394 128.201,127.383 126.656,127.383    126.593,127.383 125.428,127.383 125.428,125.394 102.901,125.394 102.901,127.383 95.956,127.383 95.956,134.371 94.855,134.371    94.855,158.423 97.227,158.423 97.227,160.709 94.855,160.709 94.855,185.27 97.142,185.27 97.142,191.621 100.402,191.621    100.402,205.257 106.246,205.257 106.246,207.459 122.252,207.459 122.252,199.54 113.148,199.54 113.148,197.296 106.373,197.296    106.373,183.576 101.672,183.576 101.672,179.002 99.428,179.002 99.428,167.654 101.63,167.654 101.63,151.478 99.301,151.478    99.301,142.416 101.672,142.416 101.672,133.312 108.448,133.312 108.448,130.983 117.722,130.983 117.722,133.227    126.593,133.227 126.656,133.227 136.035,133.227 136.035,130.983 145.182,130.983 145.182,133.312 152.084,133.312    152.084,142.416 154.202,142.416 154.202,151.478 152.127,151.478 152.127,167.654 154.202,167.654 154.202,179.002    152.085,179.002 152.085,183.576 147.385,183.576 147.385,197.296 140.609,197.296 140.609,199.54 131.505,199.54 131.505,207.459    147.512,207.459 147.512,205.257 153.101,205.257 153.101,191.621 156.488,191.621 156.488,185.27 158.775,185.27 158.775,160.709    156.403,160.709 156.403,158.423  "></polygon>
	<polygon fill="none" stroke="#C09559" stroke-width="1.44" stroke-miterlimit="10" points="134.787,217.748 134.787,207.459    131.505,207.459 131.505,208.729 122.21,208.729 122.21,207.459 118.907,207.459 118.907,217.748  "></polygon>
</g>
<g>
	
		<rect x="116.588" y="228.133" fill="none" stroke="#C09559" stroke-width="1.44" stroke-miterlimit="10" width="2.35" height="2.351"></rect>
	
		<rect x="134.945" y="228.133" fill="none" stroke="#C09559" stroke-width="1.44" stroke-miterlimit="10" width="2.351" height="2.351"></rect>
	
		<rect x="116.588" y="215.525" fill="none" stroke="#C09559" stroke-width="1.44" stroke-miterlimit="10" width="2.35" height="2.35"></rect>
	<polygon fill="none" stroke="#C09559" stroke-width="1.44" stroke-miterlimit="10" points="131.463,243.283 131.463,236.296    148.462,236.296 148.462,230.483 147.586,230.483 147.586,228.133 148.462,228.133 148.462,217.875 147.459,217.875    147.459,215.525 148.462,215.525 148.462,205.235 147.459,205.235 147.459,203.012 148.474,203.012 148.474,197.423    158.828,197.423 158.828,133.396 126.688,133.396 94.929,133.396 94.929,197.423 104.965,197.423 104.965,203.012 106.235,203.012    106.235,205.235 104.965,205.235 104.965,215.525 106.235,215.525 106.235,217.875 104.965,217.875 104.965,228.133    106.108,228.133 106.108,230.483 104.922,230.483 104.922,236.296 122.317,236.296 122.317,243.283  "></polygon>
	
		<rect x="134.818" y="215.652" fill="none" stroke="#C09559" stroke-width="1.44" stroke-miterlimit="10" width="2.478" height="2.223"></rect>
	<path fill="none" stroke="#C09559" stroke-width="1.44" stroke-miterlimit="10" d="M126.688,245.506"></path>
	<polyline fill="none" stroke="#C09559" stroke-width="1.44" stroke-miterlimit="10" points="126.942,122.027 133.803,122.027    133.803,124.123 140.599,124.123 140.591,126.6 142.885,126.6 142.885,124.123 154.382,124.123 154.382,126.537 156.604,126.537    156.604,124.123 168.102,124.123 168.102,135.81 165.688,135.81 165.688,137.97 168.102,137.97 168.102,149.467 165.752,149.467    165.752,151.753 168.102,151.753 168.102,158.55 170.325,158.55 170.325,172.333 168.102,172.333 168.102,179.13 165.815,179.13    165.815,181.353 168.102,181.353 168.102,192.849 165.688,192.849 165.688,195.137 168.102,195.137 168.102,206.442    157.685,206.442  "></polyline>
	<polyline fill="none" stroke="#C09559" stroke-width="1.44" stroke-miterlimit="10" points="95.945,206.442 85.719,206.442    85.719,195.137 88.069,195.137 88.069,192.849 85.719,192.849 85.719,181.48 88.069,181.48 88.069,179.13 85.719,179.13    85.719,172.333 83.433,172.333 83.433,158.55 85.719,158.55 85.719,151.753 88.006,151.753 88.006,149.467 85.655,149.467    85.655,137.97 88.069,137.97 88.069,135.684 85.655,135.684 85.655,124.123 97.152,124.123 97.152,126.537 99.502,126.537    99.502,124.123 110.872,124.123 110.872,126.537 113.143,126.535 113.159,124.123 120.04,124.123 120.04,122.027 126.942,122.027     "></polyline>
	<path fill="none" stroke="#C09559" stroke-width="1.44" stroke-miterlimit="10" d="M156.668,165.41   c0-5.865-1.695-11.333-4.622-15.943h2.146v-11.624h-11.37v2.399c-4.61-2.927-10.078-4.623-15.943-4.623   c-5.864,0-11.333,1.696-15.943,4.623v-2.399H99.312v11.624h2.399c-2.926,4.61-4.622,10.078-4.622,15.943   c0,5.918,1.728,11.434,4.704,16.07h-2.48v11.242h11.624v-2.146c3.37,2.139,7.199,3.622,11.306,4.264v-14.205   c-7.188-2.046-11.306-8.072-11.306-15.226c0-8.806,6.289-15.877,15.943-15.943c9.147-0.063,15.943,7.138,15.943,15.943   c0,7.215-4.287,13.243-11.326,15.276l0.023,14.154c4.104-0.647,7.933-2.135,11.303-4.279v2.161h11.37V181.48h-2.238   C154.935,176.843,156.668,171.328,156.668,165.41z"></path>
</g>
</svg>